<svg width="24" height="24" viewBox="0 0 24 24" fill="none" xmlns="http://www.w3.org/2000/svg">
<path d="M8.99998 14.25C8.64998 14.25 8.35414 14.1291 8.11248 13.8875C7.87081 13.6458 7.74998 13.35 7.74998 13C7.74998 12.65 7.87081 12.3541 8.11248 12.1125C8.35414 11.8708 8.64998 11.75 8.99998 11.75C9.34998 11.75 9.64581 11.8708 9.88748 12.1125C10.1291 12.3541 10.25 12.65 10.25 13C10.25 13.35 10.1291 13.6458 9.88748 13.8875C9.64581 14.1291 9.34998 14.25 8.99998 14.25ZM15 14.25C14.65 14.25 14.3541 14.1291 14.1125 13.8875C13.8708 13.6458 13.75 13.35 13.75 13C13.75 12.65 13.8708 12.3541 14.1125 12.1125C14.3541 11.8708 14.65 11.75 15 11.75C15.35 11.75 15.6458 11.8708 15.8875 12.1125C16.1291 12.3541 16.25 12.65 16.25 13C16.25 13.35 16.1291 13.6458 15.8875 13.8875C15.6458 14.1291 15.35 14.25 15 14.25ZM12 20C14.2333 20 16.125 19.225 17.675 17.675C19.225 16.125 20 14.2333 20 12C20 11.6 19.975 11.2125 19.925 10.8375C19.875 10.4625 19.7833 10.1 19.65 9.74998C19.3 9.83331 18.95 9.89581 18.6 9.93748C18.25 9.97914 17.8833 9.99998 17.5 9.99998C15.9833 9.99998 14.55 9.67498 13.2 9.02498C11.85 8.37498 10.7 7.46664 9.74998 6.29998C9.21664 7.59998 8.45414 8.72914 7.46248 9.68748C6.47081 10.6458 5.31664 11.3666 3.99998 11.85V12C3.99998 14.2333 4.77498 16.125 6.32498 17.675C7.87498 19.225 9.76664 20 12 20ZM12.0016 21.5C10.6877 21.5 9.45268 21.2506 8.29655 20.752C7.1404 20.2533 6.13472 19.5765 5.2795 18.7217C4.42427 17.8669 3.74721 16.8616 3.24833 15.706C2.74944 14.5504 2.5 13.3156 2.5 12.0017C2.5 10.6877 2.74933 9.45268 3.248 8.29655C3.74667 7.1404 4.42342 6.13472 5.27825 5.2795C6.1331 4.42427 7.13834 3.74721 8.29398 3.24833C9.44959 2.74944 10.6844 2.5 11.9983 2.5C13.3122 2.5 14.5473 2.74933 15.7034 3.248C16.8596 3.74667 17.8652 4.42342 18.7205 5.27825C19.5757 6.1331 20.2527 7.13834 20.7516 8.29398C21.2505 9.44959 21.5 10.6844 21.5 11.9983C21.5 13.3122 21.2506 14.5473 20.752 15.7034C20.2533 16.8596 19.5765 17.8652 18.7217 18.7205C17.8669 19.5757 16.8616 20.2527 15.706 20.7516C14.5504 21.2505 13.3156 21.5 12.0016 21.5ZM10.1788 4.22113C10.9365 5.61859 11.9875 6.68111 13.3317 7.40868C14.6759 8.13623 16.0654 8.5 17.5 8.5C17.7718 8.5 18.0368 8.4859 18.2952 8.4577C18.5535 8.4295 18.8154 8.38912 19.0808 8.33655C18.4128 7.00962 17.4452 5.95512 16.1779 5.17305C14.9106 4.391 13.5179 3.99998 12 3.99998C11.6641 3.99998 11.3509 4.01888 11.0605 4.0567C10.7701 4.09453 10.4762 4.14934 10.1788 4.22113ZM4.28073 10.0904C5.22048 9.61988 6.1128 8.93238 6.9577 8.0279C7.80258 7.1234 8.3481 6.03908 8.59425 4.77495C7.50063 5.27112 6.57626 5.98427 5.82113 6.9144C5.06599 7.84453 4.55253 8.9032 4.28073 10.0904Z" fill="#15A5A1"/>
</svg>
