<svg xmlns="http://www.w3.org/2000/svg" width="24" height="24" fill="none" viewBox="0 0 24 24"><g id="Bank"><path id="ico-Bank" fill="#15A5A1" fill-rule="evenodd" d="M5.21 10.71V18.94H6.97V10.71H5.21ZM2 20.08V22H22V20.08H2ZM17.01 10.71V18.94H18.77V10.71H17.01ZM2 7.7V9.57H22V7.7L11.99 2L2 7.7ZM11.99 4.21L17.88 7.63H6.1L11.99 4.21ZM11.42 11.33C11.42 10.99 11.68 10.71 12 10.71C12.32 10.71 12.58 10.98 12.58 11.33V11.84H13.06C13.38 11.84 13.64 12.11 13.64 12.46C13.64 12.81 13.38 13.08 13.06 13.08H11.64C11.37 13.08 11.16 13.31 11.16 13.59C11.16 13.87 11.38 14.1 11.64 14.1H12.35C13.26 14.1 14 14.88 14 15.84C14 16.72 13.38 17.45 12.58 17.57V18.1C12.58 18.44 12.32 18.72 12 18.72C11.68 18.72 11.42 18.45 11.42 18.1V17.59H10.94C10.62 17.59 10.36 17.32 10.36 16.97C10.36 16.62 10.62 16.35 10.94 16.35H12.36C12.63 16.35 12.84 16.12 12.84 15.84C12.84 15.56 12.62 15.33 12.36 15.33H11.65C10.74 15.33 10 14.55 10 13.59C10 12.71 10.62 11.98 11.42 11.86V11.33Z" clip-rule="evenodd"/></g></svg>