<svg width="16" height="16" viewBox="0 0 16 16" fill="none" xmlns="http://www.w3.org/2000/svg">
<path d="M8.61333 2H8.51333V3.1H8.61333C10.96 3.1 12.8667 5.00667 12.8667 7.35333V7.45333H13.9667V7.35333C13.9667 4.4 11.5667 2 8.61333 2Z" fill="#8A8A8C"/>
<path fill-rule="evenodd" clip-rule="evenodd" d="M8.84 9.65333C7.54667 9.31333 6.75333 8.52 6.42 7.23333L7.66 5.99333L4.74667 3.08L2 5.82667L2.08667 6.13333C3.20667 10.2267 5.84667 12.8667 9.94 13.9867L10.2467 14.0733L13 11.32L10.0867 8.40667L8.84 9.65333ZM5.22 6.88L5.28 7.16667C5.68 9.17333 6.90667 10.3933 8.91333 10.8L9.2 10.86L10.0867 9.97333L11.44 11.3267L9.92667 12.84C6.45333 11.8067 4.26667 9.62 3.23333 6.15333L4.74667 4.64L6.1 5.99333L5.21333 6.88H5.22Z" fill="#8A8A8C"/>
<path d="M10.6467 7.44667V7.34667C10.6467 6.22667 9.73333 5.31333 8.61333 5.31333H8.51333V4.21333H8.61333C10.34 4.21333 11.7467 5.62 11.7467 7.34667V7.44667H10.6467Z" fill="#8A8A8C"/>
</svg>
