<svg xmlns="http://www.w3.org/2000/svg" width="360" height="166" fill="none" viewBox="0 0 360 166"><g clip-path="url(#clip0_3_45)"><rect width="360" height="166" fill="#EA0029"/><path fill="#FFC629" d="M77.2163 357.698C77.8462 357.512 78.4718 357.316 79.1017 357.143C83.9674 355.811 87.5903 350.9 87.4001 345.885C87.1887 340.305 83.346 335.659 78.0364 334.908C73.7709 334.305 69.4379 334.158 65.1767 333.533C50.9388 331.45 37.4026 327.338 25.7097 318.305C20.4508 314.244 16.0035 309.398 13.6912 302.951C9.51448 291.315 13.0655 275.567 28.3306 269.892C34.5914 267.567 41.0593 266.399 47.6498 266.187C62.9868 265.692 78.3365 265.549 93.6735 265.05C105.569 264.664 117.474 264.161 129.349 263.337C148.232 262.031 166.981 259.653 185.235 254.191C196.759 250.742 207.919 246.43 217.777 239.197C226.57 232.75 233.19 224.65 235.249 213.418C237.097 203.331 235.08 193.8 230.865 184.65C224.364 170.519 213.859 160.788 199.942 154.701C189.961 150.337 179.566 147.591 168.883 145.834C154.899 143.534 140.809 142.805 126.681 143.196C118.112 143.43 109.531 143.938 101 144.823C88.9051 146.072 76.8527 147.773 64.7877 149.3C57.2207 150.259 49.6706 151.43 42.0824 152.194C35.3101 152.879 28.4997 153.166 21.7105 152.033C12.7146 150.532 7.70093 145.677 5.98038 136.493C5.67178 134.84 5.60836 133.105 5.65486 131.417C5.74363 128.397 6.8935 126.605 9.73854 125.959C13.4417 125.113 17.2337 124.549 21.0172 124.198C28.2841 123.525 35.5933 123.195 42.6531 121.07C56.2864 116.957 64.8385 107.59 68.7742 93.7807C72.1646 81.8846 71.3994 70.1187 66.9099 58.5914C64.3523 52.023 60.053 46.9817 54.4221 43.0467C44.6695 36.2396 33.8051 32.1832 22.3996 29.489C8.28006 26.1483 -6.06347 25.259 -20.4831 25.7926C-36.9615 26.4043 -53.1187 29.2677 -68.9588 33.988C-69.3773 34.1138 -69.7746 34.3003 -70.3411 34.5172C-67.9569 42.231 -69.4068 48.9817 -75.4393 54.6043C-72.3111 57.0512 -69.0475 57.6803 -65.3655 56.7562C-57.4306 54.7649 -49.5296 52.5436 -41.5018 51.0642C-34.7211 49.8147 -27.7965 49.1292 -20.9059 48.8212C-13.8968 48.5088 -6.83288 48.6433 0.163471 49.1552C12.9894 50.0923 25.4433 52.7909 37.001 58.8994C37.4914 59.1597 37.9649 59.4591 38.4637 59.702C44.3186 62.5654 47.3455 67.3681 48.136 73.9322C48.639 78.1015 48.6475 82.184 47.7132 86.2665C45.9716 93.8718 41.4736 98.5877 33.8727 99.72C28.5716 100.51 23.2028 100.792 17.889 101.516C13.0232 102.176 8.06448 102.657 3.38052 104.037C-8.51539 107.538 -15.8034 117.061 -16.484 129.894C-17.2703 144.736 -12.2312 157.196 -0.872222 166.632C4.67835 171.244 11.3069 173.478 18.2821 174.645C27.4302 176.172 36.6163 175.847 45.7602 174.719C58.6538 173.131 71.5093 171.248 84.3986 169.626C92.0798 168.658 99.7737 167.721 107.493 167.183C116.603 166.545 125.738 166.042 134.861 166.029C150.054 166.007 165.138 167.396 179.853 171.613C186.651 173.561 193.216 176.103 199.105 180.186C207.171 185.782 211.669 193.826 213.503 203.422C214.438 208.299 212.988 212.754 209.542 216.416C204.744 221.518 198.788 224.742 192.519 227.418C181.54 232.1 170.071 234.985 158.378 236.989C145.214 239.245 131.948 240.534 118.619 241.076C104.897 241.636 91.1667 242.035 77.4361 242.447C68.0217 242.729 58.5946 242.729 49.1928 243.193C38.8442 243.701 28.5547 244.876 18.8993 249.158C3.58764 255.948 -6.22415 267.523 -9.31015 284.491C-12.1425 300.057 -8.30824 314.001 1.59233 326.136C10.4318 336.969 21.8246 344.015 34.5026 349.043C44.5596 353.034 54.9886 355.46 65.7051 356.605C68.2331 356.874 70.7695 357.06 73.3017 357.316C73.8386 357.373 74.3628 357.564 74.8912 357.694H77.2205L77.2163 357.698Z"/><path fill="#FF7A1A" d="M-21.5182 25.8451C-21.1716 25.8321 -20.8249 25.8104 -20.4782 25.7974C-6.05858 25.2638 8.28496 26.1532 22.4045 29.4938C26.0823 30.3615 29.701 31.3767 33.2435 32.5741C35.8349 33.4505 38.384 34.4223 40.8867 35.5199C37.8641 38.4701 32.6813 45.5635 35.2346 58.0062C30.3604 55.594 25.3341 53.7588 20.1936 52.3922C13.6749 50.6568 6.97025 49.6633 0.164134 49.1644C-6.50248 48.6785 -13.224 48.5396 -19.9033 48.7956C-27.2336 38.0926 -23.8137 29.5762 -21.5182 25.8495V25.8451Z"/><path fill="#FFC629" d="M40.8868 35.5194C45.5834 37.5715 50.1152 40.0444 54.4229 43.0553C60.0538 46.9859 64.3531 52.0272 66.9107 58.6C71.3959 70.1273 72.1653 81.8932 68.7749 93.7893C68.5424 94.6006 68.2972 95.3945 68.0309 96.1755C66.7289 100.041 65.0294 103.52 62.9327 106.605C57.7287 95.8544 49.8404 93.4466 44.9197 93.0908C46.1922 91.1819 47.118 88.9042 47.7182 86.2838C47.7267 86.2404 47.7351 86.197 47.7478 86.1536C48.6525 82.1102 48.6441 78.071 48.1452 73.9452C47.3547 67.3811 44.3279 62.5784 38.4729 59.715C37.9741 59.472 37.5006 59.1727 37.0103 58.9124C36.4227 58.6 35.835 58.3007 35.2432 58.01C32.6898 45.5673 37.8684 38.4739 40.8952 35.5237L40.8868 35.5194Z"/><path fill="#773DBD" d="M-16.4832 129.906C-15.8068 117.078 -8.51453 107.55 3.38138 104.049C8.06956 102.669 13.0283 102.188 17.8898 101.528C23.2037 100.808 28.5725 100.522 33.8736 99.7323C38.8535 98.9905 42.5017 96.7128 44.9156 93.0901C49.8363 93.4459 57.7288 95.8537 62.9285 106.604C58.2319 113.503 51.5188 118.401 42.6497 121.078C35.5899 123.208 28.285 123.537 21.0138 124.206C17.2303 124.557 13.4426 125.121 9.73517 125.967C6.89013 126.618 5.74026 128.405 5.65149 131.425C5.60076 133.117 5.66418 134.848 5.97701 136.501C6.01505 136.7 6.05734 136.9 6.09539 137.095C6.55194 139.295 7.20716 141.238 8.06955 142.939C2.82334 143.785 -5.73711 147.399 -5.79629 161.942C-9.00489 158.388 -11.4864 154.488 -13.2492 150.275C-15.8195 144.132 -16.8806 137.316 -16.4874 129.906H-16.4832Z"/><path fill="#10CFC9" d="M8.07794 142.936C10.6651 148.03 15.1166 150.941 21.7155 152.043C28.5047 153.175 35.3109 152.889 42.0874 152.203C44.7168 151.939 47.3378 151.622 49.9588 151.288C53.1547 150.876 56.3464 150.433 59.5423 150.004C57.9655 155.036 55.9871 164.429 59.4662 172.954C54.8964 173.566 50.3308 174.169 45.7568 174.733C45.6003 174.75 45.4482 174.768 45.2917 174.789C36.3001 175.87 27.2746 176.16 18.2787 174.659C11.3034 173.492 4.67491 171.258 -0.875668 166.646C-2.67231 165.154 -4.30832 163.583 -5.79214 161.943C-5.72872 147.401 2.8275 143.787 8.0737 142.941L8.07794 142.936Z"/><path fill="#FF7A1A" d="M59.542 150.002C61.2921 149.764 63.0381 149.534 64.7882 149.308C76.8532 147.777 88.9055 146.081 101 144.831C102.032 144.723 103.063 144.623 104.095 144.527C108.8 144.089 113.517 143.768 118.239 143.534C116.747 147.72 114.908 156.484 120.37 166.419C116.417 166.606 112.469 166.849 108.521 167.122C108.174 167.144 107.832 167.17 107.485 167.191C99.7699 167.734 92.0718 168.667 84.3907 169.634C76.0754 170.68 67.7685 171.838 59.4617 172.953C55.9825 164.428 57.9609 155.031 59.5378 150.002H59.542Z"/><path fill="#0033A1" d="M118.244 143.536C121.055 143.397 123.871 143.285 126.682 143.211C140.81 142.82 154.9 143.549 168.884 145.849C173.602 146.625 178.26 147.593 182.855 148.807C185.088 149.398 187.303 150.048 189.501 150.764C186.288 153.844 181.824 160.543 184.086 172.934C182.686 172.465 181.279 172.031 179.854 171.623C177.829 171.042 175.8 170.522 173.762 170.044C160.987 167.055 147.967 166.023 134.862 166.04C130.034 166.044 125.202 166.192 120.374 166.422C114.913 156.487 116.752 147.723 118.244 143.536Z"/><path fill="#FFC629" d="M189.501 150.762C193.026 151.907 196.51 153.213 199.942 154.714C213.859 160.801 224.364 170.537 230.866 184.663C232.565 188.359 233.91 192.121 234.785 195.952C235.558 199.344 235.964 202.793 235.93 206.307C226.402 201.301 217.693 203.678 213.741 205.297C213.698 204.681 213.618 204.06 213.5 203.431C212.739 199.444 211.513 195.722 209.763 192.333C207.307 187.57 203.81 183.461 199.101 180.19C194.447 176.958 189.365 174.697 184.081 172.927C181.824 160.537 186.288 153.838 189.496 150.758L189.501 150.762Z"/><path fill="#FFC629" d="M358.086 363.014C357.535 362.512 356.993 362.002 356.435 361.513C352.124 357.744 350.894 350.865 353.622 345.747C356.656 340.054 362.939 337.11 368.756 338.933C373.429 340.397 377.942 342.368 382.622 343.808C398.256 348.624 414.197 350.987 430.735 347.334C438.172 345.693 445.175 342.838 450.799 337.273C460.954 327.23 465.27 309.126 452.502 295.746C447.264 290.261 441.229 285.877 434.586 282.426C419.127 274.393 403.478 266.719 388.022 258.682C376.033 252.449 364.095 246.09 352.349 239.412C333.667 228.797 315.666 217.136 299.728 202.512C289.668 193.278 280.415 183.326 273.971 170.979C268.221 159.97 265.531 148.308 269.096 135.628C272.298 124.242 279.177 115.327 288.115 107.886C301.911 96.3914 317.585 91.4304 334.913 91.9285C347.339 92.2866 359.373 94.5293 371.202 97.9407C386.686 102.407 401.485 108.557 415.758 115.889C424.416 120.333 432.949 125.068 441.24 130.17C452.996 137.397 464.481 145.073 476.067 152.574C483.333 157.28 490.474 162.199 497.861 166.712C504.451 170.744 511.281 174.381 518.807 176.533C528.779 179.383 536.365 176.797 542.766 168.097C543.917 166.531 544.859 164.759 545.663 162.983C547.097 159.802 546.825 157.376 544.237 155.31C540.872 152.615 537.273 150.17 533.575 147.95C526.472 143.689 519.152 139.763 512.995 134.093C501.109 123.136 497.081 109.211 500.024 92.9335C502.56 78.911 509.286 67.0609 519.706 57.2846C525.643 51.7136 532.592 48.5832 540.347 47.2551C553.773 44.9635 566.95 46.0749 579.992 48.867C596.141 52.3179 611.281 58.4256 625.78 66.0492C642.348 74.7632 657.45 85.6592 671.29 98.3292C671.655 98.6651 671.968 99.0537 672.438 99.5568C666.101 106.403 664.176 114.128 667.515 122.927C663.075 123.936 659.415 122.99 656.111 120.225C648.989 114.266 642.019 108.084 634.544 102.611C628.23 97.989 621.484 93.882 614.582 90.1839C607.561 86.4232 600.258 83.0999 592.834 80.2019C579.224 74.8878 565.106 71.5863 550.183 72.2672C549.55 72.2973 548.913 72.3762 548.28 72.3841C540.837 72.4889 535.311 75.9952 531.186 82.428C528.565 86.5134 526.495 90.7511 525.39 95.4509C523.333 104.207 525.558 111.312 532.771 116.215C537.802 119.634 543.158 122.559 548.234 125.917C552.885 128.988 557.721 131.919 561.821 135.649C572.237 145.118 574.892 158.586 569.107 172.254C562.417 188.06 550.963 198.536 534.563 202.772C526.549 204.843 518.631 203.915 510.898 201.708C500.757 198.81 491.513 193.968 482.717 188.314C470.313 180.343 458.098 172.084 445.716 164.079C438.337 159.309 430.93 154.563 423.296 150.22C414.287 145.091 405.185 140.09 395.848 135.604C380.298 128.133 364.148 122.181 346.947 119.348C339 118.04 330.992 117.463 322.899 118.818C311.811 120.679 303.142 126.831 296.416 135.903C292.997 140.512 292.231 145.852 293.911 151.346C296.248 158.999 300.721 165.268 305.79 171.123C314.67 181.369 324.959 189.989 335.923 197.804C348.267 206.602 361.203 214.444 374.581 221.542C388.352 228.851 402.214 235.997 416.068 243.156C425.568 248.065 435.224 252.686 444.619 257.778C454.962 263.379 464.906 269.644 472.633 278.827C484.886 293.388 489.089 310.225 483.681 329.368C478.72 346.931 467.75 359.539 451.481 367.294C436.957 374.216 421.729 375.952 406.205 374.961C393.889 374.178 381.982 371.585 370.428 367.522C367.703 366.562 365.011 365.512 362.288 364.537C361.71 364.332 361.076 364.273 360.469 364.15L358.084 363.008L358.086 363.014Z"/><path fill="#0033A1" d="M423.584 120.064C420.765 118.535 417.928 117.03 415.075 115.569C400.749 108.202 385.894 102.024 370.351 97.5387C365.107 96.0264 359.827 94.7427 354.487 93.7486C351.893 93.2657 349.285 92.8546 346.662 92.5198C348.402 97.3204 349.593 106.518 340.981 118.349C342.657 118.549 344.325 118.789 345.996 119.064C348.373 119.454 350.723 119.91 353.06 120.415C367.71 123.584 381.619 128.918 395.083 135.391C400.044 137.773 404.936 140.307 409.783 142.925C420.438 135.235 422.994 125.173 423.584 120.064Z"/><path fill="#FFC629" d="M346.499 92.0578C342.31 91.5207 338.084 91.1713 333.81 91.0496C316.484 90.5572 300.808 95.5286 287.012 107.025C283.404 110.034 280.126 113.285 277.294 116.837C274.788 119.985 272.629 123.37 270.888 127.039C283.175 126.505 290.89 133.242 294.12 136.861C294.474 136.241 294.87 135.636 295.309 135.04C298.103 131.269 301.24 128.001 304.744 125.337C309.666 121.589 315.322 119.032 321.798 117.939C328.197 116.861 334.542 117.001 340.847 117.75C349.42 105.978 348.235 96.829 346.506 92.0554L346.499 92.0578Z"/><path fill="#FF7A1A" d="M316.036 181.185C313.187 178.554 310.437 175.819 307.794 172.952C306.874 171.956 305.965 170.948 305.075 169.921C299.998 164.065 295.53 157.788 293.194 150.127C291.73 145.338 292.128 140.666 294.516 136.491C291.281 132.873 283.561 126.125 271.264 126.66C270.105 129.11 269.125 131.684 268.362 134.407C264.791 147.101 267.485 158.771 273.229 169.792C277.025 177.066 281.8 183.512 287.135 189.464C290.281 192.978 293.622 196.323 297.079 199.568C302.215 187.117 310.999 182.725 316.034 181.19L316.036 181.185Z"/><path fill="#fff" fill-rule="evenodd" d="M134.623 72.1366C134.104 71.135 133.202 70.5001 131.94 70.2488C131.845 70.2301 131.738 70.2184 131.634 70.2077L131.495 70.1925C131.412 70.1827 131.295 70.171 131.097 70.171H130.989L128.948 70.1692L128.951 68.1572C128.955 67.8934 128.942 67.7494 128.93 67.6537L128.914 67.5151L128.91 67.4832L128.91 67.4832C128.9 67.3934 128.89 67.2965 128.872 67.2111C128.618 65.9618 127.977 65.0675 126.967 64.5533C126.192 64.1581 125.481 64.1447 125.474 64.1447H125.361C125.164 64.1447 125.012 64.1536 124.839 64.1768C121.518 64.6204 121.556 67.7816 121.559 67.9157V73.7794C121.559 74.9553 121.884 75.888 122.523 76.5498C123.182 77.173 124.121 77.4932 125.308 77.4932H131.256C131.593 77.4932 134.571 77.402 135.002 74.2453C135.029 74.0441 135.038 73.875 135.034 73.6184C135.034 73.6094 135.021 72.9057 134.622 72.1366H134.623ZM179.981 64.9799H181.733C181.958 64.9799 182.141 65.1605 182.141 65.3841V68.3208H185.218C185.443 68.3208 185.626 68.5015 185.626 68.725V69.9305C185.626 70.1531 185.443 70.3347 185.218 70.3347H182.141V74.56C182.141 77.0407 183.049 77.9528 185.477 78.0378C185.696 78.0458 185.87 78.2238 185.87 78.4402V79.8361C185.87 80.0651 185.678 80.2457 185.448 80.2403C181.157 80.1321 179.573 78.3383 179.573 74.7371V65.3832C179.573 65.1605 179.755 64.979 179.981 64.979V64.9799ZM141.588 74.2265C141.588 70.1782 143.397 68.0543 147.595 68.0543C151.792 68.0543 153.58 70.1335 153.58 74.2265C153.58 78.3195 151.748 80.2663 147.595 80.2663C143.441 80.2663 141.588 78.2748 141.588 74.2265ZM144.267 74.2265C144.267 77.1248 145.317 78.2086 147.595 78.2086C149.872 78.2086 150.9 77.1471 150.9 74.2265C150.9 71.3058 149.872 70.0897 147.595 70.0897C145.317 70.0897 144.267 71.3282 144.267 74.2265ZM161.235 68.0543C157.037 68.0543 155.228 70.1782 155.228 74.2265C155.228 78.2748 157.081 80.2663 161.235 80.2663C165.388 80.2663 167.22 78.3195 167.22 74.2265C167.22 70.1335 165.433 68.0543 161.235 68.0543ZM161.235 78.2086C158.957 78.2086 157.907 77.1248 157.907 74.2265C157.907 71.3282 158.957 70.0897 161.235 70.0897C163.512 70.0897 164.54 71.3058 164.54 74.2265C164.54 77.1471 163.512 78.2086 161.235 78.2086ZM168.909 71.4838C168.909 73.74 170.249 74.5368 172.728 74.9347H172.729C174.918 75.2879 175.654 75.6644 175.654 76.6821C175.654 77.6998 174.783 78.1862 173.019 78.1862C171.866 78.1862 170.499 77.9394 169.286 77.4199C169.014 77.3036 168.71 77.4941 168.71 77.7883L168.712 79.0796C168.712 79.2423 168.81 79.3881 168.961 79.4516C169.945 79.8692 171.491 80.2224 173.153 80.2224C176.703 80.2224 178.021 78.873 178.021 76.5283C178.021 74.1835 176.703 73.4529 174.314 73.055C172.46 72.7456 171.299 72.3476 171.299 71.3738C171.299 70.5108 172.17 70.0905 173.711 70.0905C174.971 70.0905 176.019 70.2846 177.106 70.7004C177.374 70.8033 177.664 70.611 177.664 70.3257V69.0219C177.664 68.8466 177.549 68.6892 177.379 68.6374C176.534 68.3789 175.049 68.0552 173.599 68.0552C170.361 68.0552 168.909 69.3599 168.909 71.4838ZM189.193 65.3868H188.424V67.3702H187.956V65.3868H187.184V64.979H189.193V65.3868ZM191.531 65.7874V67.3702H192V64.9799H191.501L190.78 66.34L190.066 64.9799H189.563V67.3702H190.032V65.7874L190.654 66.966H190.909L191.531 65.7874Z" clip-rule="evenodd"/><path fill="#EA0029" fill-rule="evenodd" d="M136.34 59H119.596C117.61 59 116 60.5949 116 62.5612V79.4388C116 81.4051 117.61 83 119.593 83H136.337C138.321 83 139.931 81.4076 139.931 79.4388V62.5612C139.933 60.5949 138.323 59 136.34 59Z" clip-rule="evenodd"/><path fill="#fff" fill-rule="evenodd" d="M136.337 59H119.593C117.61 59 116 60.5949 116 62.5612V79.4388C116 81.4051 117.61 83 119.593 83H136.337C138.323 83 139.933 81.4051 139.933 79.4388V62.5612C139.933 60.5949 138.323 59 136.337 59ZM136.674 77.039H136.672C135.639 78.9682 133.516 79.6493 132.89 79.8127C132.526 79.9068 132.201 79.9514 131.61 79.9885H124.475C124.475 79.9885 123.989 79.9861 123.501 79.8647C123.16 79.7805 122.726 79.6468 122.372 79.4858C121.951 79.2951 121.471 79.0301 120.809 78.3838L120.703 78.2773C120.18 77.7547 119.678 77.0118 119.428 76.3852C119.289 76.041 119.244 75.8676 119.165 75.5556L119.155 75.5184C119.039 75.0652 119.041 74.5823 119.041 74.5229V67.5564C119.078 66.9521 119.12 66.6302 119.217 66.2686C119.383 65.6495 120.071 63.5469 122.028 62.5167C123.127 61.9025 124.259 61.588 125.389 61.588C127.132 61.588 128.264 62.3433 128.313 62.3755C131.384 64.2032 131.476 67.2444 131.473 67.6728C131.922 67.6629 134.965 67.7471 136.835 70.8229C136.845 70.8378 138.682 73.51 136.674 77.039Z" clip-rule="evenodd"/><path fill="#fff" fill-rule="evenodd" d="M135 74.2455C134.569 77.4006 131.592 77.4922 131.255 77.4922H125.307C124.121 77.4922 123.182 77.1727 122.523 76.5486C121.884 75.8874 121.557 74.9538 121.557 73.7799V67.9155C121.557 67.7817 121.518 64.6217 124.839 64.1784C125.012 64.1536 125.163 64.1462 125.361 64.1462H125.473C125.473 64.1462 126.191 64.1586 126.966 64.5548C127.976 65.0675 128.618 65.9615 128.87 67.2121C128.888 67.2963 128.9 67.3929 128.908 67.4846L128.913 67.5143L128.927 67.653C128.942 67.7496 128.955 67.8932 128.95 68.1582V70.1691H130.988H131.097C131.293 70.1691 131.411 70.1815 131.493 70.1889L131.632 70.2063C131.736 70.2162 131.842 70.2286 131.939 70.2459C133.199 70.4985 134.103 71.1325 134.621 72.133C134.822 72.5193 134.923 72.8859 134.975 73.1608C135.03 73.4332 135.032 73.6115 135.032 73.6164C135.037 73.8715 135.027 74.0424 135 74.243V74.2455Z" clip-rule="evenodd"/><path fill="#fff" d="M197.399 80V63.992H202.703C206.855 63.992 208.031 65.96 208.031 68.288C208.031 70.208 207.071 70.76 206.279 71.432C207.503 71.984 208.991 73.136 208.991 75.464C208.991 78.656 206.783 80 203.183 80H197.399ZM199.127 70.928H203.087C204.647 70.928 206.303 70.664 206.303 68.408C206.303 66.224 205.007 65.648 202.871 65.648H199.127V70.928ZM199.127 78.392H203.327C205.391 78.392 207.263 77.936 207.263 75.368C207.263 72.8 205.127 72.56 203.255 72.56H199.127V78.392ZM216.478 80.36C214.39 80.36 211.87 79.592 211.87 76.712C211.87 73.736 213.694 72.632 216.286 72.632C218.062 72.632 219.19 72.968 220.054 73.472V72.056C220.054 70.208 218.926 69.368 216.91 69.368C215.614 69.368 214.054 69.728 213.046 70.52V68.792C214.03 68.168 215.878 67.808 217.462 67.808C220.078 67.808 221.806 69.08 221.806 71.648V77.456C221.806 80 219.262 80.36 216.478 80.36ZM213.598 76.448C213.598 78.248 215.302 78.824 216.886 78.824C218.95 78.824 220.054 78.632 220.054 77.552V74.864C219.238 74.48 218.038 74.192 216.742 74.192C214.726 74.192 213.598 74.984 213.598 76.448ZM225.639 68.984C227.199 68.192 228.903 67.808 230.703 67.808C234.183 67.808 235.455 69.416 235.455 72.2V80H233.727V72.2C233.727 71.072 233.391 69.368 230.511 69.368C229.503 69.368 228.447 69.536 227.367 69.848V80H225.639V68.984ZM241.031 80H239.303V63.464H241.031V72.464L245.903 68.024H248.063L242.183 73.208L248.927 80H246.623L241.031 74.336V80Z"/><path fill="#fff" d="M79.6734 106V97.996H84.9654V99.304H81.3054V101.452H84.4854V102.772H81.3054V106H79.6734ZM86.34 99.052V97.792H87.936V99.052H86.34ZM86.376 106V100.012H87.9L87.912 106H86.376ZM89.6213 100.456C90.2812 100.108 91.6013 99.796 92.5973 99.796C94.2533 99.796 95.1172 100.432 95.1172 101.968V106H93.5933V102.232C93.5933 101.62 93.3293 101.08 92.2853 101.08C91.8773 101.08 91.4453 101.176 91.1453 101.296V106H89.6213V100.456ZM99.0611 106.18C97.7051 106.18 96.4931 105.736 96.4931 104.176C96.4931 102.94 97.2491 102.256 98.6771 102.256C99.3731 102.256 99.9851 102.448 100.405 102.676V102.196C100.405 101.404 99.8891 101.068 98.9891 101.068C98.2931 101.068 97.5011 101.32 97.0571 101.692V100.312C97.4771 100.036 98.4251 99.796 99.4211 99.796C100.465 99.796 101.917 100.18 101.917 101.86L101.905 104.728C101.905 105.844 100.765 106.18 99.0611 106.18ZM98.0051 104.164C98.0051 104.764 98.5811 105.052 99.1571 105.052C100.033 105.052 100.405 104.968 100.405 104.572V103.528C100.081 103.408 99.6851 103.324 99.2651 103.324C98.4251 103.324 98.0051 103.6 98.0051 104.164ZM103.602 100.456C104.262 100.108 105.582 99.796 106.578 99.796C108.234 99.796 109.098 100.432 109.098 101.968V106H107.574V102.232C107.574 101.62 107.31 101.08 106.266 101.08C105.858 101.08 105.426 101.176 105.126 101.296V106H103.602V100.456ZM113.522 106.132C111.926 106.132 110.45 105.256 110.45 103.036C110.45 100.708 111.83 99.796 113.51 99.796C114.158 99.796 114.866 99.94 115.406 100.168V101.5C114.854 101.26 114.326 101.092 113.75 101.092C112.622 101.092 111.962 101.62 111.962 102.88C111.962 104.2 112.49 104.824 113.81 104.824C114.398 104.824 114.974 104.62 115.418 104.392V105.712C114.854 105.988 114.266 106.132 113.522 106.132ZM119.438 106.18C117.626 106.18 116.438 105.028 116.438 103.036C116.438 100.936 117.494 99.772 119.354 99.772C121.322 99.772 122.126 101.14 122.102 103.348H117.974C118.094 104.356 118.67 104.884 119.75 104.884C120.482 104.884 121.178 104.62 121.61 104.416V105.772C121.034 106.012 120.35 106.18 119.438 106.18ZM119.294 100.972C118.598 100.972 118.13 101.308 117.998 102.316H120.578C120.458 101.368 120.074 100.972 119.294 100.972ZM127.945 108.34C127.597 108.34 127.249 108.268 127.009 108.16V106.888C127.237 106.972 127.429 107.02 127.657 107.02C128.221 107.02 128.545 106.684 128.749 105.952L126.313 99.952H128.053L129.517 104.2L130.969 99.952H132.589L130.153 106.228C129.529 107.836 128.725 108.34 127.945 108.34ZM136.031 106.18C134.027 106.18 133.043 105.052 133.043 102.964C133.043 100.732 134.075 99.772 136.019 99.772C138.023 99.772 139.031 100.84 139.031 102.964C139.031 105.04 137.951 106.18 136.031 106.18ZM136.019 104.932C137.063 104.932 137.519 104.176 137.519 102.964C137.519 101.596 137.039 101.008 136.019 101.008C134.963 101.008 134.555 101.656 134.555 102.964C134.555 104.236 134.987 104.932 136.019 104.932ZM143.135 106.18C141.467 106.18 140.375 105.388 140.375 103.72V99.952H141.899V103.552C141.899 104.452 142.283 104.872 143.147 104.872C143.999 104.872 144.383 104.452 144.383 103.552V99.952H145.835V103.72C145.835 105.388 144.815 106.18 143.135 106.18ZM147.512 106V100.54C147.836 100.312 149.084 99.796 150.236 99.796C150.812 99.796 151.136 99.892 151.34 100.024V101.176C150.704 101.068 149.624 101.092 149.036 101.188V106H147.512ZM158.508 106.18C157.176 106.18 155.844 105.904 155.844 104.704V97.624H157.344V100.18C157.812 99.916 158.472 99.796 158.856 99.796C160.656 99.796 161.604 100.924 161.604 102.928C161.592 105.46 160.164 106.18 158.508 106.18ZM158.472 104.884C159.696 104.884 160.068 104.08 160.068 103.012C160.068 101.656 159.516 101.044 158.544 101.044C158.172 101.044 157.704 101.14 157.344 101.344V104.308C157.344 104.776 157.908 104.884 158.472 104.884ZM165.705 106.18C164.037 106.18 162.945 105.388 162.945 103.72V99.952H164.469V103.552C164.469 104.452 164.853 104.872 165.717 104.872C166.569 104.872 166.953 104.452 166.953 103.552V99.952H168.405V103.72C168.405 105.388 167.385 106.18 165.705 106.18ZM171.858 106.18C170.994 106.18 170.43 105.964 169.878 105.712V104.332C170.43 104.704 171.066 105.028 171.894 105.028C172.53 105.028 172.83 104.764 172.83 104.392C172.83 103.912 172.206 103.78 171.57 103.588C170.742 103.396 169.854 103 169.854 101.776C169.854 100.336 171.162 99.82 172.218 99.832C173.142 99.856 173.622 100.06 174.126 100.336V101.584C173.562 101.284 173.094 100.984 172.41 100.984C171.786 100.984 171.426 101.212 171.426 101.596C171.426 102.112 171.954 102.244 172.554 102.412C173.346 102.628 174.402 102.856 174.402 104.236C174.378 105.652 173.154 106.18 171.858 106.18ZM175.778 99.052V97.792H177.374V99.052H175.778ZM175.814 106V100.012H177.338L177.35 106H175.814ZM179.059 100.456C179.719 100.108 181.039 99.796 182.035 99.796C183.691 99.796 184.555 100.432 184.555 101.968V106H183.031V102.232C183.031 101.62 182.767 101.08 181.723 101.08C181.315 101.08 180.883 101.176 180.583 101.296V106H179.059V100.456ZM188.907 106.18C187.095 106.18 185.907 105.028 185.907 103.036C185.907 100.936 186.963 99.772 188.823 99.772C190.791 99.772 191.595 101.14 191.571 103.348H187.443C187.563 104.356 188.139 104.884 189.219 104.884C189.951 104.884 190.647 104.62 191.079 104.416V105.772C190.503 106.012 189.819 106.18 188.907 106.18ZM188.763 100.972C188.067 100.972 187.599 101.308 187.467 102.316H190.047C189.927 101.368 189.543 100.972 188.763 100.972ZM194.698 106.18C193.834 106.18 193.27 105.964 192.718 105.712V104.332C193.27 104.704 193.906 105.028 194.734 105.028C195.37 105.028 195.67 104.764 195.67 104.392C195.67 103.912 195.046 103.78 194.41 103.588C193.582 103.396 192.694 103 192.694 101.776C192.694 100.336 194.002 99.82 195.058 99.832C195.982 99.856 196.462 100.06 196.966 100.336V101.584C196.402 101.284 195.934 100.984 195.25 100.984C194.626 100.984 194.266 101.212 194.266 101.596C194.266 102.112 194.794 102.244 195.394 102.412C196.186 102.628 197.242 102.856 197.242 104.236C197.218 105.652 195.994 106.18 194.698 106.18ZM200.393 106.18C199.529 106.18 198.965 105.964 198.413 105.712V104.332C198.965 104.704 199.601 105.028 200.429 105.028C201.065 105.028 201.365 104.764 201.365 104.392C201.365 103.912 200.741 103.78 200.105 103.588C199.277 103.396 198.389 103 198.389 101.776C198.389 100.336 199.697 99.82 200.753 99.832C201.677 99.856 202.157 100.06 202.661 100.336V101.584C202.097 101.284 201.629 100.984 200.945 100.984C200.321 100.984 199.961 101.212 199.961 101.596C199.961 102.112 200.489 102.244 201.089 102.412C201.881 102.628 202.937 102.856 202.937 104.236C202.913 105.652 201.689 106.18 200.393 106.18ZM210.04 106.18C208.336 106.12 207.352 105.112 207.352 103.156C207.352 100.444 208.804 99.796 210.664 99.796C212.056 99.796 213.088 100.336 213.088 101.392V106.12C213.088 107.596 212.164 108.58 210.136 108.58C209.176 108.58 208.456 108.412 208.048 108.232V106.864C208.42 107.02 209.248 107.284 210.052 107.284C211.312 107.284 211.588 106.732 211.588 106.072V105.7C211.18 105.988 210.64 106.18 210.04 106.18ZM210.364 104.992C210.808 104.992 211.228 104.896 211.588 104.68V101.716C211.588 101.152 211.072 101.044 210.52 101.044C209.236 101.044 208.888 101.932 208.888 103.084C208.888 104.236 209.416 104.992 210.364 104.992ZM217.371 106.18C215.367 106.18 214.383 105.052 214.383 102.964C214.383 100.732 215.415 99.772 217.359 99.772C219.363 99.772 220.371 100.84 220.371 102.964C220.371 105.04 219.291 106.18 217.371 106.18ZM217.359 104.932C218.403 104.932 218.859 104.176 218.859 102.964C218.859 101.596 218.379 101.008 217.359 101.008C216.303 101.008 215.895 101.656 215.895 102.964C215.895 104.236 216.327 104.932 217.359 104.932ZM223.983 106.18C222.627 106.18 221.415 105.736 221.415 104.176C221.415 102.94 222.171 102.256 223.599 102.256C224.295 102.256 224.907 102.448 225.327 102.676V102.196C225.327 101.404 224.811 101.068 223.911 101.068C223.215 101.068 222.423 101.32 221.979 101.692V100.312C222.399 100.036 223.347 99.796 224.343 99.796C225.387 99.796 226.839 100.18 226.839 101.86L226.827 104.728C226.827 105.844 225.687 106.18 223.983 106.18ZM222.927 104.164C222.927 104.764 223.503 105.052 224.079 105.052C224.955 105.052 225.327 104.968 225.327 104.572V103.528C225.003 103.408 224.607 103.324 224.187 103.324C223.347 103.324 222.927 103.6 222.927 104.164ZM230.036 106H228.524V97.66H230.036V106ZM233.487 106.18C232.623 106.18 232.059 105.964 231.507 105.712V104.332C232.059 104.704 232.695 105.028 233.523 105.028C234.159 105.028 234.459 104.764 234.459 104.392C234.459 103.912 233.835 103.78 233.199 103.588C232.371 103.396 231.483 103 231.483 101.776C231.483 100.336 232.791 99.82 233.847 99.832C234.771 99.856 235.251 100.06 235.755 100.336V101.584C235.191 101.284 234.723 100.984 234.039 100.984C233.415 100.984 233.055 101.212 233.055 101.596C233.055 102.112 233.583 102.244 234.183 102.412C234.975 102.628 236.031 102.856 236.031 104.236C236.007 105.652 234.783 106.18 233.487 106.18ZM242.282 106L240.266 99.952H241.898L243.11 104.164L244.25 99.952H245.426L246.602 104.224L247.826 99.952H249.422L247.406 106H246.002L244.826 102.16L243.686 106H242.282ZM250.59 99.052V97.792H252.186V99.052H250.59ZM250.626 106V100.012H252.15L252.162 106H250.626ZM256.187 106.192C254.939 106.192 254.267 105.556 254.267 104.392V101.152H253.331V99.952H254.267V98.272H255.851V99.952H257.243V101.152H255.851V104.152C255.851 104.632 256.007 104.872 256.487 104.872C256.751 104.872 257.051 104.788 257.243 104.656V105.976C256.931 106.132 256.535 106.192 256.187 106.192ZM258.664 106V97.48H260.2V100.276C260.728 99.988 261.34 99.796 261.94 99.796C263.308 99.796 264.196 100.432 264.196 102.136V106H262.672V102.4C262.672 101.524 262.24 101.08 261.412 101.08C260.968 101.08 260.512 101.212 260.2 101.416L260.176 106H258.664ZM271.995 106.18C270.327 106.18 269.235 105.388 269.235 103.72V99.952H270.759V103.552C270.759 104.452 271.143 104.872 272.007 104.872C272.859 104.872 273.243 104.452 273.243 103.552V99.952H274.695V103.72C274.695 105.388 273.675 106.18 271.995 106.18ZM278.147 106.18C277.283 106.18 276.719 105.964 276.167 105.712V104.332C276.719 104.704 277.355 105.028 278.183 105.028C278.819 105.028 279.119 104.764 279.119 104.392C279.119 103.912 278.495 103.78 277.859 103.588C277.031 103.396 276.143 103 276.143 101.776C276.143 100.336 277.451 99.82 278.507 99.832C279.431 99.856 279.911 100.06 280.415 100.336V101.584C279.851 101.284 279.383 100.984 278.699 100.984C278.075 100.984 277.715 101.212 277.715 101.596C277.715 102.112 278.243 102.244 278.843 102.412C279.635 102.628 280.691 102.856 280.691 104.236C280.667 105.652 279.443 106.18 278.147 106.18Z"/></g><defs><clipPath id="clip0_3_45"><rect width="360" height="166" fill="#fff"/></clipPath></defs></svg>