<svg width="31" height="32" viewBox="0 0 31 32" fill="none" xmlns="http://www.w3.org/2000/svg">
<g id="Group 8">
<path id="Subtract" fill-rule="evenodd" clip-rule="evenodd" d="M15.9825 31.6851C17.27 32.3803 18.8632 31.8735 19.541 30.553L19.7859 30.0759L4.40035 21.7677L4.15546 22.2448C3.47761 23.5653 3.9718 25.1993 5.25925 25.8945L15.9825 31.6851ZM13.9366 3.19071L14.8334 1.44379C15.5112 0.123317 17.1044 -0.383542 18.3919 0.311685L29.1152 6.10226C30.4026 6.79748 30.8968 8.43153 30.219 9.752L20.5223 28.6414L7.53886 21.6303C13.1208 21.6066 17.6388 16.9582 17.6388 11.2275C17.6388 7.99041 16.1972 5.09867 13.9366 3.19071ZM24.7102 8.30405C24.5068 8.70019 24.0289 8.85225 23.6426 8.64368L19.4466 6.3778C19.0603 6.16924 18.9121 5.67902 19.1154 5.28288C19.3188 4.88674 19.7967 4.73468 20.183 4.94325L24.379 7.20913C24.7653 7.41769 24.9135 7.90791 24.7102 8.30405Z" fill="#EA0029"/>
<path id="Subtract_2" fill-rule="evenodd" clip-rule="evenodd" d="M16.4317 11.4646C16.4317 16.1184 12.7533 19.8911 8.21583 19.8911C3.67835 19.8911 0 16.1184 0 11.4646C0 6.81076 3.67835 3.03809 8.21583 3.03809C12.7533 3.03809 16.4317 6.81076 16.4317 11.4646ZM10.9548 9.21845C10.9548 10.7697 9.72868 12.0273 8.21619 12.0273C6.70369 12.0273 5.47758 10.7697 5.47758 9.21845C5.47758 7.66718 6.70369 6.40962 8.21619 6.40962C9.72868 6.40962 10.9548 7.66718 10.9548 9.21845ZM12.438 15.9601C13.0351 15.9601 13.5008 15.4228 13.1982 14.9081C12.3998 13.5502 10.4168 12.5886 8.09682 12.5886C5.77687 12.5886 3.7938 13.5502 2.99543 14.9081C2.69284 15.4228 3.15858 15.9601 3.75562 15.9601H12.438Z" fill="#444444"/>
</g>
</svg>
