<svg width="40" height="40" viewBox="0 0 40 40" fill="none" xmlns="http://www.w3.org/2000/svg">
<rect width="26" height="26" transform="translate(6.88892 6.83301)" fill="#EA0029"/>
<path d="M19.8889 10.833C17.4604 10.833 15.4923 12.8524 15.4923 15.3443C15.4923 17.8362 17.4604 19.8556 19.8889 19.8556C22.3175 19.8556 24.2856 17.8362 24.2856 15.3443C24.2856 12.8524 22.3175 10.833 19.8889 10.833ZM19.8889 12.3785C21.4856 12.3785 22.7794 13.706 22.7794 15.3443C22.7794 16.9826 21.4856 18.3101 19.8889 18.3101C18.2922 18.3101 16.9985 16.9826 16.9985 15.3443C16.9985 13.706 18.2922 12.3785 19.8889 12.3785Z" fill="white"/>
<path d="M20.1362 20.7436L19.8889 20.7384C16.5683 20.7384 13.8792 23.5057 13.8889 26.9134L13.8976 29.833H25.8802L25.8889 26.9135C25.8983 23.6003 23.3518 20.8776 20.1362 20.7436ZM19.8737 22.2837L20.0904 22.2882L20.3064 22.3026C22.5962 22.5121 24.3895 24.5027 24.3827 26.9089L24.378 28.2875H15.3991L15.3951 26.9088C15.3881 24.4294 17.2884 22.4027 19.6769 22.2889L19.8737 22.2837Z" fill="white"/>
<path d="M7.08507 14.6806C7.68435 14.6806 8.17014 14.1948 8.17014 13.5955V8.17014H13.5955C14.1948 8.17014 14.6806 7.68435 14.6806 7.08507C14.6806 6.48579 14.1948 6 13.5955 6H7.08507C6.48579 6 6 6.48579 6 7.08507V13.5955C6 14.1948 6.48579 14.6806 7.08507 14.6806Z" fill="#58595B"/>
<path d="M13.5955 31.6076H8.17014V26.1823C8.17014 25.583 7.68435 25.0972 7.08507 25.0972C6.48579 25.0972 6 25.583 6 26.1823V32.6927C6 33.292 6.48579 33.7778 7.08507 33.7778H13.5955C14.1948 33.7778 14.6806 33.292 14.6806 32.6927C14.6806 32.0934 14.1948 31.6076 13.5955 31.6076Z" fill="#58595B"/>
<path d="M32.6927 6H26.1823C25.583 6 25.0972 6.48579 25.0972 7.08507C25.0972 7.68435 25.583 8.17014 26.1823 8.17014H31.6076V13.5955C31.6076 14.1948 32.0934 14.6806 32.6927 14.6806C33.292 14.6806 33.7778 14.1948 33.7778 13.5955V7.08507C33.7778 6.48579 33.292 6 32.6927 6Z" fill="#58595B"/>
<path d="M32.6927 25.0972C32.0934 25.0972 31.6076 25.583 31.6076 26.1823V31.6076H26.1823C25.583 31.6076 25.0972 32.0934 25.0972 32.6927C25.0972 33.292 25.583 33.7778 26.1823 33.7778H32.6927C33.292 33.7778 33.7778 33.292 33.7778 32.6927V26.1823C33.7778 25.583 33.292 25.0972 32.6927 25.0972Z" fill="#58595B"/>
</svg>
