<svg width="40" height="40" viewBox="0 0 40 40" fill="none" xmlns="http://www.w3.org/2000/svg">
<g id="ico_Flash_40px">
<path id="ico-Flash" d="M30.219 15.8366C30.0984 15.6238 29.8728 15.4923 29.6282 15.4923H20.7332L22.2244 4.098C22.2574 3.78411 22.0709 3.48854 21.7735 3.38307C21.476 3.27761 21.145 3.38973 20.9729 3.65427L10.1555 22.6058C10.0267 22.8153 10.0212 23.0781 10.1412 23.2928C10.2612 23.5075 10.4879 23.6405 10.7339 23.6405H19.496L18.3142 35.052C18.2903 35.3647 18.4824 35.6535 18.78 35.7523C19.0776 35.8511 19.4043 35.7346 19.5722 35.4697L30.2108 16.5202C30.3364 16.3104 30.3395 16.0493 30.219 15.8366Z" fill="#EA0029"/>
<path id="ico-User Activate" d="M31.2738 10.0886C31.5221 10.0886 31.7387 10.2418 31.8279 10.4725L31.8581 10.5759L31.8682 10.683V11.9538C31.8682 12.282 31.6021 12.5482 31.2738 12.5482C31.0257 12.5482 30.809 12.395 30.7198 12.1644L30.6897 12.061L30.6795 11.9539V10.683C30.6795 10.3547 30.9456 10.0886 31.2738 10.0886ZM33.6201 9.01323C33.9484 9.01323 34.2145 9.27936 34.2145 9.60759C34.2145 9.85575 34.0613 10.0724 33.8307 10.1616L33.7273 10.1918L33.6201 10.2019H32.3492C32.021 10.2019 31.7549 9.93581 31.7549 9.60759C31.7549 9.35942 31.9081 9.14276 32.1387 9.05355L32.2421 9.02339L32.3492 9.01323H33.6201ZM30.1985 9.01323C30.5268 9.01323 30.7929 9.27934 30.7929 9.60759C30.7929 9.85574 30.6397 10.0724 30.409 10.1616L30.3057 10.1918L30.1985 10.2019H28.9276C28.5994 10.2019 28.3333 9.93581 28.3333 9.60759C28.3333 9.35942 28.4864 9.14276 28.7171 9.05355L28.8205 9.02339L28.9276 9.01323H30.1985ZM31.2738 6.66699C31.5221 6.66699 31.7387 6.82022 31.8279 7.05091L31.8581 7.1543L31.8682 7.26141V8.53227C31.8682 8.8605 31.6021 9.12663 31.2738 9.12663C31.0257 9.12663 30.809 8.97342 30.7198 8.74277L30.6897 8.6394L30.6795 8.53227V7.26135C30.6795 6.93312 30.9456 6.66699 31.2738 6.66699Z" fill="#58595B"/>
<path id="ico-User Activate_2" d="M31.2738 30.0886C31.5221 30.0886 31.7387 30.2418 31.8279 30.4725L31.8581 30.5759L31.8682 30.683V31.9538C31.8682 32.282 31.6021 32.5482 31.2738 32.5482C31.0257 32.5482 30.809 32.395 30.7198 32.1644L30.6897 32.061L30.6795 31.9539V30.683C30.6795 30.3547 30.9456 30.0886 31.2738 30.0886ZM33.6201 29.0132C33.9484 29.0132 34.2145 29.2794 34.2145 29.6076C34.2145 29.8557 34.0613 30.0724 33.8307 30.1616L33.7273 30.1918L33.6201 30.2019H32.3492C32.021 30.2019 31.7549 29.9358 31.7549 29.6076C31.7549 29.3594 31.9081 29.1428 32.1387 29.0535L32.2421 29.0234L32.3492 29.0132H33.6201ZM30.1985 29.0132C30.5268 29.0132 30.7929 29.2793 30.7929 29.6076C30.7929 29.8557 30.6397 30.0724 30.409 30.1616L30.3057 30.1918L30.1985 30.2019H28.9276C28.5994 30.2019 28.3333 29.9358 28.3333 29.6076C28.3333 29.3594 28.4864 29.1428 28.7171 29.0535L28.8205 29.0234L28.9276 29.0132H30.1985ZM31.2738 26.667C31.5221 26.667 31.7387 26.8202 31.8279 27.0509L31.8581 27.1543L31.8682 27.2614V28.5323C31.8682 28.8605 31.6021 29.1266 31.2738 29.1266C31.0257 29.1266 30.809 28.9734 30.7198 28.7428L30.6897 28.6394L30.6795 28.5323V27.2614C30.6795 26.9331 30.9456 26.667 31.2738 26.667Z" fill="#58595B"/>
<path id="ico-User Activate_3" d="M7.94059 15.0886C8.1888 15.0886 8.40549 15.2418 8.49467 15.4725L8.52481 15.5759L8.53495 15.683V16.9538C8.53495 17.282 8.26882 17.5482 7.94059 17.5482C7.69244 17.5482 7.47577 17.395 7.38656 17.1644L7.3564 17.061L7.34624 16.9539V15.683C7.34624 15.3547 7.61237 15.0886 7.94059 15.0886ZM10.2869 14.0132C10.6151 14.0132 10.8812 14.2794 10.8812 14.6076C10.8812 14.8557 10.7281 15.0724 10.4974 15.1616L10.394 15.1918L10.2869 15.2019H9.01597C8.68774 15.2019 8.42161 14.9358 8.42161 14.6076C8.42161 14.3594 8.5748 14.1428 8.80545 14.0535L8.90883 14.0234L9.01597 14.0132H10.2869ZM6.86528 14.0132C7.19355 14.0132 7.45964 14.2793 7.45964 14.6076C7.45964 14.8557 7.30643 15.0724 7.07578 15.1616L6.97241 15.1918L6.86528 15.2019H5.59436C5.26613 15.2019 5 14.9358 5 14.6076C5 14.3594 5.15319 14.1428 5.38385 14.0535L5.48722 14.0234L5.59436 14.0132H6.86528ZM7.94059 11.667C8.1888 11.667 8.40549 11.8202 8.49467 12.0509L8.52481 12.1543L8.53495 12.2614V13.5323C8.53495 13.8605 8.26882 14.1266 7.94059 14.1266C7.69244 14.1266 7.47577 13.9734 7.38656 13.7428L7.3564 13.6394L7.34624 13.5323V12.2614C7.34624 11.9331 7.61237 11.667 7.94059 11.667Z" fill="#58595B"/>
</g>
</svg>
