<svg width="24" height="24" viewBox="0 0 24 24" fill="none" xmlns="http://www.w3.org/2000/svg">
<path d="M11.824 3.04395C9.40541 3.04395 7.44539 5.00397 7.44539 7.42253C7.44539 9.8411 9.40541 11.8011 11.824 11.8011C14.2425 11.8011 16.2026 9.8411 16.2026 7.42253C16.2026 5.00397 14.2425 3.04395 11.824 3.04395ZM11.824 4.54395C13.4141 4.54395 14.7026 5.83239 14.7026 7.42253C14.7026 9.01267 13.4141 10.3011 11.824 10.3011C10.2338 10.3011 8.94539 9.01267 8.94539 7.42253C8.94539 5.83239 10.2338 4.54395 11.824 4.54395Z" fill="#CDCDCD"/>
<path d="M12.0702 12.663L11.824 12.658C8.51699 12.658 5.839 15.3438 5.84866 18.6513L5.85732 21.485H17.7906L17.7993 18.6514C17.8087 15.4357 15.2726 12.793 12.0702 12.663ZM11.8088 14.1578L12.0246 14.1622L12.2398 14.1761C14.5201 14.3795 16.3061 16.3115 16.2993 18.6469L16.2947 19.9849H7.35266L7.34866 18.6468C7.34163 16.2403 9.23417 14.2733 11.6129 14.1628L11.8088 14.1578Z" fill="#CDCDCD"/>
</svg>
