<svg width="50" height="50" viewBox="0 0 50 50" fill="none" xmlns="http://www.w3.org/2000/svg">
<g id="Frame 627880">
<path id="Vector" d="M43.5193 24.633C39.6174 18.2221 33.255 18.0487 32.3178 18.0708C32.3252 17.1782 32.1348 10.841 25.7163 7.03061C25.6192 6.96421 23.2557 5.39284 19.6077 5.39284C17.2479 5.39284 14.8807 6.04573 12.5844 7.3257C8.49953 9.47251 7.05827 13.851 6.71475 15.142C6.51313 15.8945 6.41978 16.5658 6.3451 17.8237V32.3275C6.3451 32.4087 6.33763 33.4415 6.5878 34.4116C6.76703 35.1125 6.85664 35.474 7.15535 36.2154C7.68182 37.5212 8.7273 39.0704 9.82132 40.1623L10.0416 40.3799C11.4269 41.7263 12.4313 42.2796 13.3087 42.6743C14.0443 43.0063 14.9554 43.2903 15.6685 43.4673C16.6879 43.7182 17.6923 43.7219 17.6997 43.7219H32.6053C33.8449 43.6481 34.5207 43.5522 35.2824 43.3567C36.5893 43.0173 41.0214 41.5935 43.1833 37.5765C47.3839 30.225 43.5417 24.6551 43.5193 24.6293V24.633Z" fill="white"/>
<path id="Vector_2" d="M38.9025 27.3663C37.8197 25.2822 35.9341 23.958 33.298 23.4342C33.1001 23.3936 32.876 23.3715 32.6595 23.3493L32.3682 23.3161C32.1965 23.294 31.9501 23.2719 31.5393 23.2719H27.0475L27.055 19.0778C27.0662 18.5282 27.0363 18.2294 27.0102 18.0303L26.9766 17.7425C26.9542 17.536 26.9318 17.3073 26.8907 17.1081C26.3605 14.5039 25.0238 12.6411 22.9104 11.5714C21.2899 10.7488 19.8076 10.7193 19.7926 10.7193H19.5574C19.1429 10.7193 18.8293 10.7377 18.4671 10.7857C11.5334 11.7116 11.6118 18.2958 11.6155 18.5762V30.7931C11.6155 33.2424 12.2951 35.1863 13.6318 36.5658C15.0058 37.8643 16.9698 38.5319 19.4491 38.5319H31.8754C32.5773 38.5319 38.8017 38.3438 39.6978 31.7669C39.7538 31.3501 39.7725 30.9959 39.765 30.4611C39.765 30.4426 39.7389 28.9746 38.9025 27.3737V27.3663Z" fill="#EA0029"/>
<path id="Vector_3" d="M42.4912 0H7.50877C3.36047 0 0 3.31981 0 7.41793V42.5821C0 46.6802 3.36047 50 7.50877 50H42.4912C46.6395 50 50 46.6802 50 42.5821V7.41793C50 3.31981 46.6395 0 42.4912 0ZM43.1895 37.5802C41.0276 41.6009 36.5955 43.021 35.2886 43.3604C34.5269 43.5596 33.8511 43.6518 32.6115 43.7256H17.7022C17.7022 43.7256 16.6903 43.7219 15.671 43.471C14.9578 43.294 14.0505 43.0136 13.3112 42.678C12.4337 42.2833 11.4293 41.73 10.0441 40.3836L9.82376 40.166C8.72974 39.0741 7.68427 37.5249 7.15779 36.2191C6.85908 35.474 6.76947 35.1125 6.59025 34.4117C6.34008 33.4415 6.34755 32.405 6.34755 32.3276V17.8237C6.42596 16.5658 6.5193 15.8945 6.7172 15.142C7.06071 13.851 8.50198 9.47252 12.5868 7.32571C14.8831 6.04574 17.2504 5.39284 19.6102 5.39284C23.2544 5.39284 25.618 6.96422 25.7188 7.03062C32.1373 10.841 32.3277 17.1745 32.3202 18.0708C33.2574 18.0487 39.6199 18.2221 43.5218 24.633C43.5442 24.6625 47.3863 30.2287 43.1857 37.5802H43.1895Z" fill="#EA0029"/>
</g>
</svg>
