<svg xmlns="http://www.w3.org/2000/svg" width="328" height="230" fill="none" viewBox="0 0 328 230"><circle cx="164" cy="115" r="43" fill="#EA0029"/><path fill="#fff" d="M181.779 114.648C178.033 108.493 171.925 108.327 171.025 108.348C171.032 107.491 170.849 101.407 164.688 97.7494C164.594 97.6856 162.325 96.1771 158.823 96.1771C156.558 96.1771 154.285 96.8039 152.081 98.0327C148.16 100.094 146.776 104.297 146.446 105.536C146.253 106.259 146.163 106.903 146.091 108.111V122.034C146.091 122.112 146.084 123.104 146.324 124.035C146.496 124.708 146.582 125.055 146.869 125.767C147.375 127.02 148.378 128.508 149.428 129.556L149.64 129.765C150.97 131.057 151.934 131.588 152.776 131.967C153.483 132.286 154.357 132.559 155.042 132.729C156.02 132.969 156.985 132.973 156.992 132.973H171.301C172.491 132.902 173.14 132.81 173.871 132.622C175.126 132.297 179.381 130.93 181.456 127.073C185.489 120.016 181.8 114.669 181.779 114.644V114.648Z"/><path fill="#EA0029" d="M177.346 117.272C176.307 115.271 174.497 114 171.966 113.497C171.776 113.458 171.561 113.437 171.353 113.415L171.074 113.383C170.909 113.362 170.672 113.341 170.278 113.341H165.966L165.973 109.315C165.984 108.787 165.955 108.5 165.93 108.309L165.898 108.033C165.876 107.835 165.854 107.615 165.815 107.424C165.306 104.924 164.023 103.135 161.994 102.109C160.438 101.319 159.015 101.291 159.001 101.291H158.775C158.377 101.291 158.076 101.308 157.728 101.354C151.072 102.243 151.147 108.564 151.151 108.833V120.561C151.151 122.913 151.803 124.779 153.087 126.103C154.406 127.35 156.291 127.991 158.671 127.991H170.6C171.274 127.991 177.25 127.81 178.11 121.496C178.164 121.096 178.182 120.756 178.174 120.243C178.174 120.225 178.149 118.816 177.346 117.279V117.272Z"/><path fill="#EA0029" d="M180.792 91H147.208C143.226 91 140 94.187 140 98.1212V131.879C140 135.813 143.226 139 147.208 139H180.792C184.774 139 188 135.813 188 131.879V98.1212C188 94.187 184.774 91 180.792 91ZM181.462 127.077C179.386 130.937 175.132 132.3 173.877 132.626C173.146 132.817 172.497 132.906 171.307 132.977H156.994C156.994 132.977 156.023 132.973 155.044 132.732C154.359 132.562 153.488 132.293 152.779 131.971C151.936 131.592 150.972 131.061 149.642 129.768L149.431 129.559C148.381 128.511 147.377 127.024 146.871 125.77C146.585 125.055 146.499 124.708 146.327 124.035C146.086 123.104 146.094 122.109 146.094 122.034V108.111C146.169 106.903 146.259 106.259 146.449 105.536C146.778 104.297 148.162 100.094 152.083 98.0327C154.288 96.8039 156.56 96.1771 158.826 96.1771C162.324 96.1771 164.593 97.6857 164.69 97.7494C170.852 101.407 171.035 107.487 171.027 108.348C171.927 108.327 178.035 108.493 181.781 114.648C181.802 114.676 185.491 120.02 181.458 127.077H181.462Z"/></svg>