<svg width="500" height="230" viewBox="0 0 500 230" fill="none" xmlns="http://www.w3.org/2000/svg">
<path d="M175.679 105.082L182.476 110.857" stroke="#EA0029" stroke-width="2" stroke-linecap="round"/>
<path d="M184.117 107.579L190.263 112.497" stroke="#EA0029" stroke-width="2" stroke-linecap="round"/>
<path d="M184.117 107.578L182.478 110.856" stroke="#EA0029" stroke-width="2" stroke-linecap="round"/>
<path d="M242.374 179.592L239.624 188.077" stroke="#EA0029" stroke-width="2" stroke-linecap="round"/>
<path d="M243.28 188.345L241.075 195.901" stroke="#EA0029" stroke-width="2" stroke-linecap="round"/>
<path d="M243.281 188.344L239.626 188.078" stroke="#EA0029" stroke-width="2" stroke-linecap="round"/>
<path d="M299.84 153.064L305.796 159.703" stroke="#EA0029" stroke-width="2" stroke-linecap="round"/>
<path d="M307.862 156.677L313.289 162.379" stroke="#EA0029" stroke-width="2" stroke-linecap="round"/>
<path d="M307.862 156.676L305.795 159.703" stroke="#EA0029" stroke-width="2" stroke-linecap="round"/>
<path d="M282.791 56.4592L271.773 60.4971" stroke="#EA0029" stroke-width="2" stroke-linecap="round"/>
<path d="M274.466 64.4987L264.852 68.3472" stroke="#EA0029" stroke-width="2" stroke-linecap="round"/>
<path d="M274.467 64.5003L271.777 60.4989" stroke="#EA0029" stroke-width="2" stroke-linecap="round"/>
<circle cx="194.865" cy="91.8022" r="2.30904" fill="#EA0029"/>
<circle cx="285.841" cy="168.925" r="2.77085" fill="#EA0029"/>
<circle cx="216.891" cy="47.0466" r="1.90205" fill="#EA0029"/>
<circle cx="206.748" cy="166.241" r="1.90205" fill="#EA0029"/>
<circle cx="324.549" cy="99.0349" r="1.90205" fill="#EA0029"/>
<path d="M193.734 134.991C194.078 134.935 194.373 135.24 194.304 135.583L193.498 139.611C193.418 140.007 192.928 140.15 192.648 139.86L189.399 136.492C189.119 136.201 189.28 135.716 189.679 135.651L193.734 134.991Z" fill="#40D9D4"/>
<path d="M203.729 187.482C204.073 187.426 204.368 187.731 204.299 188.074L203.493 192.102C203.413 192.498 202.922 192.642 202.642 192.351L199.394 188.983C199.114 188.693 199.275 188.207 199.673 188.142L203.729 187.482Z" fill="#40D9D4"/>
<path d="M272.312 37.8541C272.656 37.798 272.951 38.1034 272.882 38.4458L272.076 42.4743C271.997 42.8699 271.506 43.0136 271.226 42.7232L267.977 39.355C267.697 39.0646 267.859 38.5792 268.257 38.5144L272.312 37.8541Z" fill="#40D9D4"/>
<path d="M334.211 140.565C334.555 140.509 334.85 140.814 334.781 141.157L333.975 145.185C333.896 145.581 333.405 145.725 333.125 145.434L329.876 142.066C329.596 141.776 329.757 141.29 330.156 141.225L334.211 140.565Z" fill="#40D9D4"/>
<path d="M225.705 69.1957C226.049 69.1396 226.344 69.445 226.275 69.7874L225.049 75.9134C224.97 76.309 224.479 76.4527 224.199 76.1623L219.259 71.0404C218.979 70.75 219.14 70.2646 219.538 70.1998L225.705 69.1957Z" fill="#40D9D4"/>
<path d="M302.659 84.893C302.943 84.6904 303.343 84.8341 303.433 85.1715L304.49 89.1415C304.594 89.5313 304.217 89.8773 303.838 89.7407L299.435 88.1556C299.055 88.0189 298.985 87.5122 299.314 87.278L302.659 84.893Z" fill="#40D9D4"/>
<path d="M268.423 182.531C268.707 182.328 269.106 182.472 269.196 182.809L270.254 186.779C270.357 187.169 269.981 187.515 269.601 187.378L265.198 185.793C264.819 185.657 264.749 185.15 265.077 184.916L268.423 182.531Z" fill="#40D9D4"/>
<path d="M178.375 149.318C178.525 148.857 179.177 148.857 179.326 149.318L180.02 151.452C180.087 151.658 180.279 151.797 180.495 151.797H182.739C183.223 151.797 183.425 152.417 183.033 152.702L181.218 154.021C181.042 154.148 180.969 154.374 181.036 154.58L181.729 156.713C181.879 157.174 181.352 157.557 180.96 157.272L179.145 155.954C178.969 155.826 178.732 155.826 178.557 155.954L176.742 157.272C176.35 157.557 175.823 157.174 175.972 156.713L176.666 154.58C176.733 154.374 176.659 154.148 176.484 154.021L174.669 152.702C174.277 152.417 174.478 151.797 174.963 151.797H177.206C177.423 151.797 177.615 151.658 177.682 151.452L178.375 149.318Z" fill="#FFD154"/>
<path d="M166.963 79.5758C167.112 79.1152 167.764 79.1152 167.914 79.5758L168.322 80.8335C168.389 81.0395 168.581 81.179 168.798 81.179H170.12C170.605 81.179 170.806 81.7988 170.414 82.0835L169.344 82.8607C169.169 82.9881 169.096 83.2137 169.163 83.4198L169.571 84.6774C169.721 85.138 169.194 85.5211 168.802 85.2364L167.732 84.4591C167.557 84.3318 167.319 84.3318 167.144 84.4591L166.074 85.2364C165.683 85.5211 165.155 85.138 165.305 84.6774L165.714 83.4198C165.781 83.2137 165.707 82.9881 165.532 82.8607L164.462 82.0835C164.07 81.7988 164.272 81.179 164.756 81.179H166.078C166.295 81.179 166.487 81.0395 166.554 80.8335L166.963 79.5758Z" fill="#FFD154"/>
<path d="M298.947 182.287C299.097 181.826 299.748 181.826 299.898 182.287L300.307 183.544C300.374 183.75 300.566 183.89 300.782 183.89H302.105C302.589 183.89 302.79 184.51 302.399 184.794L301.329 185.572C301.153 185.699 301.08 185.925 301.147 186.131L301.556 187.388C301.705 187.849 301.178 188.232 300.786 187.947L299.716 187.17C299.541 187.043 299.304 187.043 299.129 187.17L298.059 187.947C297.667 188.232 297.14 187.849 297.289 187.388L297.698 186.131C297.765 185.925 297.692 185.699 297.516 185.572L296.447 184.794C296.055 184.51 296.256 183.89 296.741 183.89H298.063C298.28 183.89 298.472 183.75 298.538 183.544L298.947 182.287Z" fill="#FFD154"/>
<path d="M240.509 54.2165C240.658 53.7558 241.31 53.7558 241.46 54.2165L241.868 55.4741C241.935 55.6801 242.127 55.8196 242.344 55.8196H243.666C244.151 55.8196 244.352 56.4394 243.96 56.7241L242.89 57.5014C242.715 57.6287 242.642 57.8544 242.709 58.0604L243.117 59.318C243.267 59.7787 242.74 60.1617 242.348 59.877L241.278 59.0998C241.103 58.9724 240.866 58.9724 240.69 59.0998L239.621 59.877C239.229 60.1617 238.701 59.7787 238.851 59.318L239.26 58.0604C239.327 57.8544 239.253 57.6287 239.078 57.5014L238.008 56.7241C237.616 56.4394 237.818 55.8196 238.302 55.8196H239.625C239.841 55.8196 240.033 55.6801 240.1 55.4741L240.509 54.2165Z" fill="#FFD154"/>
<path d="M309.092 123.958C309.241 123.497 309.893 123.497 310.043 123.958L310.451 125.215C310.518 125.421 310.71 125.561 310.927 125.561H312.249C312.734 125.561 312.935 126.181 312.543 126.465L311.473 127.243C311.298 127.37 311.225 127.596 311.292 127.802L311.7 129.059C311.85 129.52 311.323 129.903 310.931 129.618L309.861 128.841C309.686 128.714 309.449 128.714 309.273 128.841L308.204 129.618C307.812 129.903 307.284 129.52 307.434 129.059L307.843 127.802C307.91 127.596 307.836 127.37 307.661 127.243L306.591 126.465C306.199 126.181 306.401 125.561 306.885 125.561H308.208C308.424 125.561 308.616 125.421 308.683 125.215L309.092 123.958Z" fill="#FFD154"/>
<path d="M307.824 58.0202C307.974 57.5595 308.625 57.5595 308.775 58.0202L309.468 60.154C309.535 60.36 309.727 60.4995 309.944 60.4995H312.188C312.672 60.4995 312.873 61.1193 312.481 61.404L310.666 62.7228C310.491 62.8501 310.418 63.0758 310.485 63.2818L311.178 65.4156C311.328 65.8763 310.8 66.2593 310.409 65.9746L308.593 64.6559C308.418 64.5285 308.181 64.5285 308.006 64.6559L306.19 65.9746C305.799 66.2593 305.271 65.8763 305.421 65.4156L306.114 63.2818C306.181 63.0758 306.108 62.8501 305.933 62.7228L304.118 61.404C303.726 61.1193 303.927 60.4995 304.412 60.4995H306.655C306.872 60.4995 307.064 60.36 307.131 60.154L307.824 58.0202Z" fill="#FFD154"/>
<circle cx="250" cy="122" r="45" fill="#EA0029"/>
<path d="M231.502 120.988L231.502 120.99C231.477 121.647 231.707 122.226 232.175 122.693L242.505 133.023C242.76 133.278 243.056 133.471 243.391 133.599C243.716 133.725 244.055 133.788 244.404 133.788C244.754 133.788 245.094 133.725 245.42 133.599C245.754 133.471 246.05 133.278 246.304 133.023L268.757 110.57C269.221 110.107 269.461 109.537 269.461 108.885C269.461 108.24 269.224 107.674 268.768 107.213C268.336 106.734 267.766 106.5 267.105 106.5C266.444 106.5 265.874 106.734 265.443 107.213L244.404 128.251L235.49 119.336C235.062 118.862 234.506 118.623 233.86 118.623C233.208 118.623 232.638 118.863 232.175 119.327L232.165 119.337L232.155 119.348C231.745 119.809 231.528 120.363 231.502 120.988Z" fill="white" stroke="white"/>
</svg>
