<svg xmlns="http://www.w3.org/2000/svg" width="134" height="24" fill="none" viewBox="0 0 134 24"><path fill="#EA0029" fill-rule="evenodd" d="M18.6333 13.1365C18.114 12.1349 17.2107 11.5 15.9489 11.2487C15.8532 11.2299 15.7466 11.2183 15.6427 11.2076L15.5036 11.1924C15.4205 11.1825 15.3031 11.1709 15.1053 11.1709H14.9969L12.9547 11.1691L12.9574 9.15705C12.9619 8.89325 12.9493 8.74927 12.9367 8.65359L12.9204 8.51498L12.9169 8.48312C12.9071 8.3933 12.8966 8.2964 12.8788 8.21093C12.625 6.96166 11.9838 6.0674 10.973 5.55321C10.1972 5.15795 9.48633 5.14453 9.4791 5.14453H9.3662C9.16839 5.14453 9.01665 5.15347 8.84323 5.17672C5.52116 5.62027 5.55909 8.78146 5.5618 8.9156V14.7792C5.5618 15.9552 5.88696 16.8879 6.52645 17.5496C7.1858 18.1729 8.12516 18.4931 9.31291 18.4931H15.2643C15.6012 18.4931 18.5809 18.4019 19.0118 15.2451C19.0389 15.0439 19.0479 14.8749 19.0443 14.6183C19.0443 14.6093 19.0307 13.9055 18.6315 13.1365H18.6333ZM64.0159 5.97976H65.7691C65.994 5.97976 66.1774 6.1604 66.1774 6.38396V9.32069H69.2556C69.4805 9.32069 69.6638 9.50133 69.6638 9.72489V10.9303C69.6638 11.153 69.4814 11.3346 69.2556 11.3346H66.1774V15.5599C66.1774 18.0406 67.0851 18.9527 69.5148 19.0377C69.7343 19.0457 69.9086 19.2237 69.9086 19.4401V20.836C69.9086 21.0649 69.7162 21.2456 69.4859 21.2402C65.1928 21.132 63.6077 19.3381 63.6077 15.737V6.38307C63.6077 6.1604 63.7901 5.97886 64.0159 5.97886V5.97976ZM25.6017 15.2264C25.6017 11.1781 27.4118 9.05422 31.6118 9.05422C35.8118 9.05422 37.6002 11.1334 37.6002 15.2264C37.6002 19.3194 35.7676 21.2662 31.6118 21.2662C27.456 21.2662 25.6017 19.2747 25.6017 15.2264ZM28.2825 15.2264C28.2825 18.1246 29.3329 19.2085 31.6118 19.2085C33.8906 19.2085 34.9185 18.147 34.9185 15.2264C34.9185 12.3057 33.8906 11.0895 31.6118 11.0895C29.3329 11.0895 28.2825 12.3281 28.2825 15.2264ZM45.2595 9.05422C41.0595 9.05422 39.2494 11.1781 39.2494 15.2264C39.2494 19.2747 41.1038 21.2662 45.2595 21.2662C49.4153 21.2662 51.2479 19.3194 51.2479 15.2264C51.2479 11.1334 49.4595 9.05422 45.2595 9.05422ZM45.2595 19.2085C42.9806 19.2085 41.9302 18.1246 41.9302 15.2264C41.9302 12.3281 42.9806 11.0895 45.2595 11.0895C47.5383 11.0895 48.5662 12.3057 48.5662 15.2264C48.5662 18.147 47.5383 19.2085 45.2595 19.2085ZM52.9379 12.4837C52.9379 14.7399 54.2783 15.5367 56.7586 15.9346H56.7595C58.9498 16.2878 59.6868 16.6643 59.6868 17.682C59.6868 18.6996 58.8152 19.1861 57.0503 19.1861C55.8969 19.1861 54.5285 18.9393 53.3155 18.4197C53.0427 18.3035 52.7383 18.494 52.7383 18.7882L52.741 20.0795C52.741 20.2422 52.8385 20.388 52.9894 20.4515C53.9748 20.8691 55.5211 21.2223 57.184 21.2223C60.7364 21.2223 62.0551 19.8729 62.0551 17.5282C62.0551 15.1834 60.7364 14.4528 58.3455 14.0549C56.4912 13.7455 55.3287 13.3475 55.3287 12.3737C55.3287 11.5107 56.2004 11.0904 57.7422 11.0904C59.0031 11.0904 60.0517 11.2845 61.1392 11.7003C61.4075 11.8031 61.6974 11.6109 61.6974 11.3256V10.0218C61.6974 9.84651 61.5827 9.68912 61.4129 9.63726C60.5675 9.37882 59.0808 9.0551 57.6302 9.0551C54.3903 9.0551 52.9379 10.3598 52.9379 12.4837ZM73.2326 6.38664H72.4639V8.3701H71.9951V6.38664H71.2229V5.97886H73.2326V6.38664ZM75.5718 6.78728V8.37011H76.0415V5.97977H75.542L74.8212 7.33993L74.1067 5.97977H73.6036V8.37011H74.0724V6.78728L74.6947 7.96591H74.9495L75.5718 6.78728Z" clip-rule="evenodd"/><path fill="#fff" fill-rule="evenodd" d="M20.3509 0H3.59789C1.61063 0 0 1.59488 0 3.56124V20.4388C0 22.4051 1.61063 24 3.59541 24H20.3484C22.3332 24 23.9438 22.4076 23.9438 20.4388V3.56124C23.9463 1.59488 22.3357 0 20.3509 0Z" clip-rule="evenodd"/><path fill="#EA0029" fill-rule="evenodd" d="M20.3484 0H3.59541C1.61063 0 0 1.59488 0 3.56124V20.4388C0 22.4051 1.61063 24 3.59541 24H20.3484C22.3357 24 23.9463 22.4051 23.9463 20.4388V3.56124C23.9463 1.59488 22.3357 0 20.3484 0ZM20.6854 18.039H20.6829C19.6496 19.9682 17.5261 20.6493 16.8992 20.8127C16.5349 20.9068 16.2103 20.9514 15.6181 20.9885H8.47933C8.47933 20.9885 7.99367 20.9861 7.50552 20.8647C7.16357 20.7805 6.72994 20.6468 6.3756 20.4858C5.95436 20.2951 5.47365 20.0301 4.81206 19.3838L4.70551 19.2773C4.18267 18.7547 3.67966 18.0118 3.4294 17.3852C3.29063 17.041 3.24603 16.8676 3.16674 16.5556L3.15683 16.5184C3.04037 16.0652 3.04285 15.5823 3.04285 15.5229V8.55639C3.08001 7.95212 3.12214 7.63017 3.21878 7.2686C3.38479 6.64947 4.07365 4.5469 6.03118 3.51666C7.13136 2.90249 8.26375 2.58797 9.39367 2.58797C11.1381 2.58797 12.2705 3.34331 12.3201 3.3755C15.3926 5.20318 15.4843 8.24435 15.4818 8.67279C15.9303 8.66288 18.9757 8.74709 20.8465 11.8229C20.8564 11.8378 22.695 14.51 20.6854 18.039Z" clip-rule="evenodd"/><path fill="#EA0029" fill-rule="evenodd" d="M19.0105 15.2458C18.5794 18.4008 15.601 18.4925 15.264 18.4925H9.31209C8.12518 18.4925 7.18606 18.173 6.52694 17.5489C5.88765 16.8877 5.56057 15.954 5.56057 14.7802V8.91575C5.56057 8.78202 5.52092 5.62198 8.84377 5.17868C9.01722 5.15391 9.16837 5.14648 9.3666 5.14648H9.47811C9.47811 5.14648 10.1967 5.15887 10.9723 5.55511C11.9833 6.06775 12.625 6.96178 12.8778 8.21242C12.8951 8.29662 12.9075 8.39321 12.9149 8.48484L12.9199 8.51456L12.9348 8.65324C12.9496 8.74983 12.962 8.89347 12.9571 9.15845V11.1694H14.9964H15.1054C15.3011 11.1694 15.4201 11.1818 15.5019 11.1892L15.6406 11.2065C15.7447 11.2164 15.8512 11.2288 15.9479 11.2462C17.2091 11.4988 18.1135 12.1328 18.6314 13.1333C18.8321 13.5196 18.9337 13.8861 18.9858 14.161C19.0403 14.4335 19.0428 14.6118 19.0428 14.6167C19.0477 14.8718 19.0378 15.0427 19.0105 15.2433V15.2458Z" clip-rule="evenodd"/><path fill="#EA0029" d="M125.1 20.9999H123.371V4.46387H125.1V13.4639L129.975 9.02387H132.136L126.253 14.2079L133 20.9999H130.695L125.1 15.3359V20.9999Z"/><path fill="#EA0029" d="M109.699 9.98362C111.26 9.19162 112.965 8.80762 114.766 8.80762C118.248 8.80762 119.521 10.4156 119.521 13.1996V20.9996H117.792V13.1996C117.792 12.0716 117.455 10.3676 114.574 10.3676C113.565 10.3676 112.509 10.5356 111.428 10.8476V20.9996H109.699V9.98362Z"/><path fill="#EA0029" d="M100.533 21.3596C98.4442 21.3596 95.9229 20.5916 95.9229 17.7116C95.9229 14.7356 97.7479 13.6316 100.341 13.6316C102.118 13.6316 103.247 13.9676 104.111 14.4716V13.0556C104.111 11.2076 102.983 10.3676 100.966 10.3676C99.6689 10.3676 98.1081 10.7276 97.0995 11.5196V9.79162C98.084 9.16762 99.9331 8.80762 101.518 8.80762C104.135 8.80762 105.864 10.0796 105.864 12.6476V18.4556C105.864 20.9996 103.319 21.3596 100.533 21.3596ZM97.6518 17.4476C97.6518 19.2476 99.3567 19.8236 100.942 19.8236C103.007 19.8236 104.111 19.6316 104.111 18.5516V15.8636C103.295 15.4796 102.094 15.1916 100.798 15.1916C98.7804 15.1916 97.6518 15.9836 97.6518 17.4476Z"/><path fill="#EA0029" d="M81.4443 21.0002V4.99219H86.7513C90.9055 4.99219 92.0822 6.96019 92.0822 9.28819C92.0822 11.2082 91.1217 11.7602 90.3292 12.4322C91.5539 12.9842 93.0427 14.1362 93.0427 16.4642C93.0427 19.6562 90.8335 21.0002 87.2315 21.0002H81.4443ZM83.1733 11.9282H87.1355C88.6963 11.9282 90.3532 11.6642 90.3532 9.40819C90.3532 7.22419 89.0565 6.64819 86.9193 6.64819H83.1733V11.9282ZM83.1733 19.3922H87.3756C89.4407 19.3922 91.3138 18.9362 91.3138 16.3682C91.3138 13.8002 89.1766 13.5602 87.3036 13.5602H83.1733V19.3922Z"/></svg>