<svg width="16" height="16" viewBox="0 0 16 16" fill="none" xmlns="http://www.w3.org/2000/svg">
<path fill-rule="evenodd" clip-rule="evenodd" d="M12.252 3.75195C11.123 2.62305 9.62305 2 8.02539 2C4.73242 2 2.05078 4.67969 2.05078 7.97266C2.04883 9.02539 2.32422 10.0527 2.84766 10.959L2 14.0547L5.16797 13.2227C6.03906 13.6992 7.02344 13.9492 8.02344 13.9512H8.02539C11.3184 13.9512 13.998 11.2715 14 7.97656C14 6.38086 13.3789 4.88086 12.252 3.75195ZM8.02539 12.9414H8.02344C7.13281 12.9414 6.25781 12.7012 5.49609 12.25L5.31445 12.1426L3.43359 12.6348L3.93555 10.8027L3.81836 10.6152C3.32031 9.82422 3.05859 8.91016 3.05859 7.97266C3.05859 5.23633 5.28711 3.00977 8.02734 3.00977C9.35352 3.00977 10.5996 3.52734 11.5371 4.46484C12.4746 5.4043 12.9902 6.65039 12.9902 7.97656C12.9902 10.7148 10.7617 12.9414 8.02539 12.9414ZM10.748 9.22266C10.5996 9.14844 9.86523 8.78711 9.72852 8.73828C9.5918 8.6875 9.49219 8.66406 9.39258 8.8125C9.29297 8.96289 9.00781 9.29883 8.91992 9.39844C8.83398 9.49609 8.74609 9.50977 8.59766 9.43555C8.44727 9.36133 7.9668 9.20312 7.39648 8.69336C6.95312 8.29883 6.65234 7.80859 6.56641 7.66016C6.47852 7.50977 6.55664 7.42969 6.63086 7.35547C6.69922 7.28906 6.78125 7.18164 6.85547 7.09375C6.92969 7.00781 6.95508 6.94531 7.00586 6.8457C7.05469 6.74609 7.0293 6.6582 6.99219 6.58398C6.95508 6.50977 6.65625 5.77344 6.53125 5.47461C6.41016 5.18359 6.28711 5.22461 6.19531 5.21875C6.10938 5.21484 6.00977 5.21484 5.91016 5.21484C5.81055 5.21484 5.64844 5.25195 5.51172 5.40234C5.375 5.55078 4.99023 5.91211 4.99023 6.64648C4.99023 7.38086 5.52539 8.0918 5.59961 8.19141C5.67383 8.28906 6.65234 9.79688 8.15039 10.4434C8.50586 10.5977 8.7832 10.6895 9 10.7578C9.35742 10.8711 9.68359 10.8555 9.94141 10.8184C10.2285 10.7754 10.8242 10.457 10.9492 10.1074C11.0723 9.75977 11.0723 9.46094 11.0352 9.39844C10.998 9.33594 10.8984 9.29883 10.748 9.22266Z" fill="#58595B"/>
</svg>
